<mxfile host="app.diagrams.net" agent="Mozilla/5.0 (Macintosh; Intel Mac OS X 10_15_7) AppleWebKit/537.36 (KHTML, like Gecko) Chrome/134.0.0.0 Safari/537.36" version="26.1.1">
  <diagram name="Page-1" id="mIgxAkmWlKlNlSACsYC3">
    <mxGraphModel dx="1774" dy="1031" grid="0" gridSize="10" guides="1" tooltips="1" connect="1" arrows="1" fold="1" page="0" pageScale="1" pageWidth="827" pageHeight="1169" math="0" shadow="0">
      <root>
        <mxCell id="0" />
        <mxCell id="1" parent="0" />
        <mxCell id="fGslSLyeD1T7_ih-Sj6G-1" value="From Dashboard" style="rounded=1;whiteSpace=wrap;arcSize=50;strokeWidth=2;labelBackgroundColor=none;fillColor=#FAE5C7;strokeColor=#0F8B8D;fontColor=#143642;" parent="1" vertex="1">
          <mxGeometry x="621" y="44" width="141" height="39" as="geometry" />
        </mxCell>
        <mxCell id="fGslSLyeD1T7_ih-Sj6G-2" value="Reports Page" style="whiteSpace=wrap;strokeWidth=2;labelBackgroundColor=none;fillColor=#FAE5C7;strokeColor=#0F8B8D;fontColor=#143642;" parent="1" vertex="1">
          <mxGeometry x="614.5" y="110" width="152" height="54" as="geometry" />
        </mxCell>
        <mxCell id="aXYgIg4oCOpkqF7Dn9Vg-2" value="" style="edgeStyle=orthogonalEdgeStyle;rounded=0;orthogonalLoop=1;jettySize=auto;html=1;" edge="1" parent="1" source="fGslSLyeD1T7_ih-Sj6G-3" target="fGslSLyeD1T7_ih-Sj6G-2">
          <mxGeometry relative="1" as="geometry" />
        </mxCell>
        <mxCell id="fGslSLyeD1T7_ih-Sj6G-3" value="Report Type" style="rhombus;strokeWidth=2;whiteSpace=wrap;labelBackgroundColor=none;fillColor=#FAE5C7;strokeColor=#0F8B8D;fontColor=#143642;" parent="1" vertex="1">
          <mxGeometry x="621" y="205" width="139" height="139" as="geometry" />
        </mxCell>
        <mxCell id="fGslSLyeD1T7_ih-Sj6G-4" value="Tomorrow&#39;s Orders Report" style="whiteSpace=wrap;strokeWidth=2;labelBackgroundColor=none;fillColor=#FAE5C7;strokeColor=#0F8B8D;fontColor=#143642;" parent="1" vertex="1">
          <mxGeometry x="173" y="424" width="244" height="54" as="geometry" />
        </mxCell>
        <mxCell id="fGslSLyeD1T7_ih-Sj6G-5" value="Monthly Income Report" style="whiteSpace=wrap;strokeWidth=2;labelBackgroundColor=none;fillColor=#FAE5C7;strokeColor=#0F8B8D;fontColor=#143642;" parent="1" vertex="1">
          <mxGeometry x="444" y="424" width="225" height="54" as="geometry" />
        </mxCell>
        <mxCell id="fGslSLyeD1T7_ih-Sj6G-6" value="Daily Deliveries Report" style="whiteSpace=wrap;strokeWidth=2;labelBackgroundColor=none;fillColor=#FAE5C7;strokeColor=#0F8B8D;fontColor=#143642;" parent="1" vertex="1">
          <mxGeometry x="712" y="424" width="223" height="54" as="geometry" />
        </mxCell>
        <mxCell id="fGslSLyeD1T7_ih-Sj6G-7" value="Popular Products Report" style="whiteSpace=wrap;strokeWidth=2;labelBackgroundColor=none;fillColor=#FAE5C7;strokeColor=#0F8B8D;fontColor=#143642;" parent="1" vertex="1">
          <mxGeometry x="956" y="424" width="232" height="54" as="geometry" />
        </mxCell>
        <mxCell id="fGslSLyeD1T7_ih-Sj6G-9" value="Print or Export?" style="rhombus;strokeWidth=2;whiteSpace=wrap;labelBackgroundColor=none;fillColor=#FAE5C7;strokeColor=#0F8B8D;fontColor=#143642;" parent="1" vertex="1">
          <mxGeometry x="609" y="513" width="165" height="165" as="geometry" />
        </mxCell>
        <mxCell id="fGslSLyeD1T7_ih-Sj6G-10" value="Print Document" style="whiteSpace=wrap;strokeWidth=2;labelBackgroundColor=none;fillColor=#FAE5C7;strokeColor=#0F8B8D;fontColor=#143642;" parent="1" vertex="1">
          <mxGeometry x="498" y="741" width="171" height="54" as="geometry" />
        </mxCell>
        <mxCell id="fGslSLyeD1T7_ih-Sj6G-11" value="Export to CSV/PDF" style="whiteSpace=wrap;strokeWidth=2;labelBackgroundColor=none;fillColor=#FAE5C7;strokeColor=#0F8B8D;fontColor=#143642;" parent="1" vertex="1">
          <mxGeometry x="712" y="741" width="193" height="54" as="geometry" />
        </mxCell>
        <mxCell id="fGslSLyeD1T7_ih-Sj6G-12" value="" style="curved=1;startArrow=none;endArrow=block;exitX=0.5;exitY=1;entryX=0.5;entryY=0;rounded=0;labelBackgroundColor=none;strokeColor=#A8201A;fontColor=default;" parent="1" source="fGslSLyeD1T7_ih-Sj6G-1" target="fGslSLyeD1T7_ih-Sj6G-2" edge="1">
          <mxGeometry relative="1" as="geometry">
            <Array as="points" />
          </mxGeometry>
        </mxCell>
        <mxCell id="fGslSLyeD1T7_ih-Sj6G-13" value="" style="curved=0;startArrow=none;endArrow=block;exitX=0.5;exitY=1;entryX=0.5;entryY=0;rounded=0;labelBackgroundColor=none;strokeColor=#A8201A;fontColor=default;exitDx=0;exitDy=0;" parent="1" source="fGslSLyeD1T7_ih-Sj6G-2" target="fGslSLyeD1T7_ih-Sj6G-3" edge="1">
          <mxGeometry relative="1" as="geometry">
            <Array as="points" />
          </mxGeometry>
        </mxCell>
        <mxCell id="fGslSLyeD1T7_ih-Sj6G-14" value="Tomorrow&#39;s Orders" style="startArrow=none;endArrow=block;exitX=0;exitY=0.5;entryX=0.5;entryY=0.01;rounded=0;labelBackgroundColor=none;strokeColor=#A8201A;fontColor=default;exitDx=0;exitDy=0;edgeStyle=orthogonalEdgeStyle;" parent="1" source="fGslSLyeD1T7_ih-Sj6G-3" target="fGslSLyeD1T7_ih-Sj6G-4" edge="1">
          <mxGeometry x="0.5751" relative="1" as="geometry">
            <mxPoint as="offset" />
          </mxGeometry>
        </mxCell>
        <mxCell id="fGslSLyeD1T7_ih-Sj6G-15" value="Monthly Income" style="startArrow=none;endArrow=block;exitX=0;exitY=0.5;entryX=0.5;entryY=0.01;rounded=0;labelBackgroundColor=none;strokeColor=#A8201A;fontColor=default;exitDx=0;exitDy=0;edgeStyle=orthogonalEdgeStyle;" parent="1" source="fGslSLyeD1T7_ih-Sj6G-3" target="fGslSLyeD1T7_ih-Sj6G-5" edge="1">
          <mxGeometry x="0.0929" relative="1" as="geometry">
            <Array as="points">
              <mxPoint x="557" y="275" />
            </Array>
            <mxPoint as="offset" />
          </mxGeometry>
        </mxCell>
        <mxCell id="fGslSLyeD1T7_ih-Sj6G-16" value="Daily Deliveries" style="startArrow=none;endArrow=block;exitX=1;exitY=0.5;entryX=0.5;entryY=0.01;rounded=0;labelBackgroundColor=none;strokeColor=#A8201A;fontColor=default;exitDx=0;exitDy=0;edgeStyle=orthogonalEdgeStyle;" parent="1" source="fGslSLyeD1T7_ih-Sj6G-3" target="fGslSLyeD1T7_ih-Sj6G-6" edge="1">
          <mxGeometry x="-0.0001" relative="1" as="geometry">
            <mxPoint as="offset" />
          </mxGeometry>
        </mxCell>
        <mxCell id="fGslSLyeD1T7_ih-Sj6G-17" value="Popular Products" style="startArrow=none;endArrow=block;exitX=1;exitY=0.5;entryX=0.5;entryY=0.01;rounded=0;labelBackgroundColor=none;strokeColor=#A8201A;fontColor=default;exitDx=0;exitDy=0;edgeStyle=orthogonalEdgeStyle;" parent="1" source="fGslSLyeD1T7_ih-Sj6G-3" target="fGslSLyeD1T7_ih-Sj6G-7" edge="1">
          <mxGeometry x="0.5536" relative="1" as="geometry">
            <mxPoint as="offset" />
          </mxGeometry>
        </mxCell>
        <mxCell id="fGslSLyeD1T7_ih-Sj6G-19" value="" style="startArrow=none;endArrow=block;exitX=0.5;exitY=1.01;entryX=0;entryY=0.5;rounded=0;labelBackgroundColor=none;strokeColor=#A8201A;fontColor=default;entryDx=0;entryDy=0;edgeStyle=orthogonalEdgeStyle;" parent="1" source="fGslSLyeD1T7_ih-Sj6G-4" target="fGslSLyeD1T7_ih-Sj6G-9" edge="1">
          <mxGeometry relative="1" as="geometry" />
        </mxCell>
        <mxCell id="fGslSLyeD1T7_ih-Sj6G-20" value="" style="startArrow=none;endArrow=block;exitX=0.5;exitY=1.01;rounded=0;labelBackgroundColor=none;strokeColor=#A8201A;fontColor=default;entryX=0;entryY=0.5;entryDx=0;entryDy=0;edgeStyle=orthogonalEdgeStyle;" parent="1" source="fGslSLyeD1T7_ih-Sj6G-5" target="fGslSLyeD1T7_ih-Sj6G-9" edge="1">
          <mxGeometry relative="1" as="geometry">
            <mxPoint x="616" y="603" as="targetPoint" />
          </mxGeometry>
        </mxCell>
        <mxCell id="fGslSLyeD1T7_ih-Sj6G-21" value="" style="startArrow=none;endArrow=block;exitX=0.5;exitY=1.01;entryX=1;entryY=0.5;rounded=0;labelBackgroundColor=none;strokeColor=#A8201A;fontColor=default;entryDx=0;entryDy=0;edgeStyle=orthogonalEdgeStyle;" parent="1" source="fGslSLyeD1T7_ih-Sj6G-6" target="fGslSLyeD1T7_ih-Sj6G-9" edge="1">
          <mxGeometry relative="1" as="geometry" />
        </mxCell>
        <mxCell id="fGslSLyeD1T7_ih-Sj6G-22" value="" style="startArrow=none;endArrow=block;exitX=0.5;exitY=1.01;rounded=0;labelBackgroundColor=none;strokeColor=#A8201A;fontColor=default;edgeStyle=orthogonalEdgeStyle;entryX=1;entryY=0.5;entryDx=0;entryDy=0;" parent="1" source="fGslSLyeD1T7_ih-Sj6G-7" target="fGslSLyeD1T7_ih-Sj6G-9" edge="1">
          <mxGeometry relative="1" as="geometry">
            <mxPoint x="774" y="591" as="targetPoint" />
          </mxGeometry>
        </mxCell>
        <mxCell id="fGslSLyeD1T7_ih-Sj6G-23" value="Print" style="startArrow=none;endArrow=block;exitX=0;exitY=0.5;rounded=0;labelBackgroundColor=none;strokeColor=#A8201A;fontColor=default;entryX=0.5;entryY=0;entryDx=0;entryDy=0;exitDx=0;exitDy=0;edgeStyle=orthogonalEdgeStyle;" parent="1" source="fGslSLyeD1T7_ih-Sj6G-9" target="fGslSLyeD1T7_ih-Sj6G-10" edge="1">
          <mxGeometry x="0.2032" relative="1" as="geometry">
            <mxPoint x="695" y="769" as="targetPoint" />
            <mxPoint as="offset" />
          </mxGeometry>
        </mxCell>
        <mxCell id="fGslSLyeD1T7_ih-Sj6G-26" value="" style="startArrow=none;endArrow=block;rounded=0;labelBackgroundColor=none;strokeColor=#A8201A;fontColor=default;edgeStyle=orthogonalEdgeStyle;exitX=0;exitY=0.5;exitDx=0;exitDy=0;entryX=0;entryY=0.5;entryDx=0;entryDy=0;" parent="1" source="fGslSLyeD1T7_ih-Sj6G-10" target="fGslSLyeD1T7_ih-Sj6G-2" edge="1">
          <mxGeometry relative="1" as="geometry">
            <Array as="points">
              <mxPoint x="152" y="772" />
              <mxPoint x="152" y="137" />
            </Array>
            <mxPoint x="453" y="772" as="sourcePoint" />
            <mxPoint x="537" y="81" as="targetPoint" />
          </mxGeometry>
        </mxCell>
        <mxCell id="aXYgIg4oCOpkqF7Dn9Vg-6" value="Back" style="edgeLabel;html=1;align=center;verticalAlign=middle;resizable=0;points=[];" vertex="1" connectable="0" parent="fGslSLyeD1T7_ih-Sj6G-26">
          <mxGeometry x="-0.1205" y="3" relative="1" as="geometry">
            <mxPoint y="-1" as="offset" />
          </mxGeometry>
        </mxCell>
        <mxCell id="fGslSLyeD1T7_ih-Sj6G-27" value="" style="startArrow=none;endArrow=block;exitX=1;exitY=0.5;entryX=1;entryY=0.5;rounded=0;labelBackgroundColor=none;strokeColor=#A8201A;fontColor=default;exitDx=0;exitDy=0;entryDx=0;entryDy=0;edgeStyle=orthogonalEdgeStyle;" parent="1" source="fGslSLyeD1T7_ih-Sj6G-11" target="fGslSLyeD1T7_ih-Sj6G-2" edge="1">
          <mxGeometry relative="1" as="geometry">
            <Array as="points">
              <mxPoint x="1212" y="771" />
              <mxPoint x="1212" y="137" />
            </Array>
          </mxGeometry>
        </mxCell>
        <mxCell id="aXYgIg4oCOpkqF7Dn9Vg-7" value="Back" style="edgeLabel;html=1;align=center;verticalAlign=middle;resizable=0;points=[];" vertex="1" connectable="0" parent="fGslSLyeD1T7_ih-Sj6G-27">
          <mxGeometry x="-0.0997" relative="1" as="geometry">
            <mxPoint x="1" y="33" as="offset" />
          </mxGeometry>
        </mxCell>
        <mxCell id="aXYgIg4oCOpkqF7Dn9Vg-4" value="" style="endArrow=classic;html=1;rounded=0;exitX=1;exitY=0.5;exitDx=0;exitDy=0;entryX=0.5;entryY=0;entryDx=0;entryDy=0;edgeStyle=orthogonalEdgeStyle;" edge="1" parent="1" source="fGslSLyeD1T7_ih-Sj6G-9" target="fGslSLyeD1T7_ih-Sj6G-11">
          <mxGeometry width="50" height="50" relative="1" as="geometry">
            <mxPoint x="620" y="508" as="sourcePoint" />
            <mxPoint x="670" y="458" as="targetPoint" />
          </mxGeometry>
        </mxCell>
        <mxCell id="aXYgIg4oCOpkqF7Dn9Vg-5" value="Export" style="edgeLabel;html=1;align=center;verticalAlign=middle;resizable=0;points=[];" vertex="1" connectable="0" parent="aXYgIg4oCOpkqF7Dn9Vg-4">
          <mxGeometry x="0.1187" y="2" relative="1" as="geometry">
            <mxPoint as="offset" />
          </mxGeometry>
        </mxCell>
      </root>
    </mxGraphModel>
  </diagram>
</mxfile>
